<svg width="70" height="70" viewBox="0 0 70 70" fill="none" xmlns="http://www.w3.org/2000/svg">
<g id="Vector">
<path d="M19.4587 23.1568L50.7151 23.1568V19.5277L19.4587 19.5277V23.1568Z" fill="#030303"/>
<path d="M19.4587 23.1568L50.7158 23.1568V19.5277L19.4587 19.5277V23.1568Z" fill="#030303"/>
<path d="M50.7158 23.1568L19.4399 23.1568V19.5318L50.7158 19.5318V23.1568Z"/>
<path d="M35 0C15.67 0 -7.62939e-06 15.67 -7.62939e-06 35C-7.62939e-06 54.33 15.67 70 35 70C54.33 70 70 54.33 70 35C70 15.67 54.33 0 35 0Z" fill="#99CCFF"/>
<path d="M19.1087 50.603L19.1087 19.9549H30.4597V24.137C33.1688 20.8709 36.2351 19.2378 39.6596 19.2378H40.4969C45.4155 19.2378 48.7215 21.7073 50.4138 26.6463C50.7321 28.1397 50.8921 29.4942 50.8921 30.7082V50.603H41.4234L37.7732 41.1733C38.4927 40.8014 39.1326 40.2914 39.6596 39.6775C40.6495 38.5252 41.2423 37.009 41.2269 35.3516C41.2237 34.9805 41.1887 34.6175 41.127 34.2651C40.5927 31.2231 37.9843 28.9282 34.8676 28.959C31.7923 28.9883 29.2554 31.2726 28.7325 34.2651C28.6626 34.6581 28.6293 35.0625 28.6334 35.4751C28.6504 37.2242 29.344 38.8045 30.4597 39.9552C30.9575 40.4701 31.5406 40.8988 32.1837 41.2188L28.8746 50.6014L19.1079 50.6014L19.1087 50.603Z" fill="#030303"/>
</g>
</svg>
