<?xml version="1.0" encoding="UTF-8"?><svg id="V2" xmlns="http://www.w3.org/2000/svg" viewBox="0 0 887.9 886.21"><defs><style>.cls-1{fill:#ff6;stroke-width:0px;}</style></defs><path class="cls-1" d="M682.46,202.68v463.93h-171.83v-63.31c-41,49.44-87.43,74.16-139.26,74.16h-12.67c-74.45,0-124.5-37.39-150.11-112.14-4.81-22.61-7.24-43.11-7.24-61.49V202.68h143.32l15.3,39.51,11.4,29.46,28.55,73.77c-10.89,5.63-20.58,13.34-28.55,22.64-14.99,17.44-23.96,40.4-23.72,65.48.05,5.61.57,11.11,1.51,16.45,8.08,46.04,47.57,80.78,94.75,80.32,46.55-.45,84.96-35.03,92.87-80.32,1.05-5.95,1.56-12.07,1.5-18.32-.26-26.48-10.76-50.39-27.64-67.82-7.54-7.8-16.36-14.28-26.1-19.13l26.1-74.01,10.06-28.52,13.93-39.51h147.83Z"/></svg>