<?xml version="1.0" encoding="UTF-8"?>
<svg id="V2" xmlns="http://www.w3.org/2000/svg" viewBox="0 0 1920 886.21">
  <defs>
    <style>.cls-1{fill:#ff6;stroke-width:0px;}</style>
  </defs>
  <path class="cls-1"
    d="M676.35,417.74h-109.54v-154.99c0-28.94-10.1-46.8-30.3-53.61-4.27-.77-7.77-1.17-10.49-1.17h-6.99c-20.59,0-34.19,12.05-40.79,36.13-.78,2.91-1.17,6.41-1.17,10.49v163.15h-110.71V120.58h110.71v37.29c26.41-31.85,56.32-47.78,89.73-47.78h8.16c47.97,0,80.21,24.09,96.72,72.25,3.1,14.57,4.66,27.78,4.66,39.62v195.77Z" />
  <path class="cls-1"
    d="M722.85,91.45V9.87h116.53v81.57h-116.53ZM839.38,120.58v297.16h-116.53V120.58h116.53Z" />
  <path class="cls-1"
    d="M1748.29,114.84c78.6,0,128.64,40.7,150.11,122.1,3.73,15.5,5.6,34.64,5.6,57.41v5.32h-206.12v1.12c6.16,15.68,15.12,26.42,26.89,32.21,11.01,5.79,21.47,8.68,31.37,8.68h3.92c13.07,0,25.58-7.46,37.53-22.4h100.82v1.12c-37.16,65.35-84.21,98.02-141.15,98.02-53.03,0-93.73-15.73-122.1-47.19-28.38-31.46-42.57-65.76-42.57-102.92,0-43.13,14.93-79.3,44.81-108.52,29.87-29.22,66.84-44.2,110.9-44.95ZM1696.76,233.59h103.06v-.84c0-7.84-5.6-16.33-16.8-25.49-10.27-5.22-20.72-7.84-31.37-7.84-30.43,0-48.73,11.39-54.89,34.17Z" />
  <path class="cls-1"
    d="M285.77,545.04v-81.57h116.53v81.57h-116.53ZM402.3,574.18v297.16h-116.53v-297.16h116.53Z" />
  <path class="cls-1"
    d="M660.03,745.95c-.35.7-.75,1.35-1.2,2-10.41,20.11-31.37,33.87-55.58,33.87-34.57,0-62.59-28.02-62.59-62.59s28.02-62.59,62.59-62.59c22.61,0,42.43,12.01,53.43,29.97.05.05.05.1.1.15.95,1.2,1.9,2.4,2.8,3.6,54.28-22.36,88.65-32.92,90.86-35.72-23.91-51.93-60.39-81.7-126.43-92.46h-13.11c-33.57,0-65.14,9.21-94.81,27.67-46.58,33.02-69.89,74.65-69.89,124.98v4.5c0,22.91,5.95,46.13,17.91,69.59,35.22,55.38,84.5,83.05,147.89,83.05,16.96,0,43.08-1.8,62.59-10.96,38.17-17.86,56.03-33.87,76.3-83.65-3.15-3-51.68-18.96-90.86-31.42Z" />
  <path class="cls-1"
    d="M901.08,672.85l64.09-98.1h125.27l-97.6,149.35,97.6,149.35h-125.27l-64.09-98.1v98.1h-116.53v-409.98h116.53v209.38Z" />
  <path class="cls-1"
    d="M1451.31,574.75v-108.35h112v108.35h83.72v82.58h-83.72v80.24c0,13.47,4.1,26.16,12.32,38.07,6.34,9.37,30.14,15.13,71.4,17.28v80.53h-45.36c-26.14,0-52.27-4.69-78.4-14.06-47.98-24.4-71.96-72.82-71.96-145.25v-56.81h-28.28v-82.58h28.28Z" />
  <path class="cls-1"
    d="M319.41,121.71v295.02h-109.27v-40.26c-26.08,31.44-55.6,47.16-88.56,47.16h-8.06c-47.35,0-79.17-23.77-95.46-71.31-3.06-14.38-4.6-27.41-4.6-39.1V121.71h91.14l9.73,25.12,7.25,18.74,18.16,46.91c-6.92,3.58-13.09,8.49-18.16,14.4-9.53,11.09-15.24,25.69-15.09,41.64.03,3.57.36,7.07.96,10.46,5.14,29.28,30.25,51.37,60.25,51.08,29.6-.28,54.03-22.27,59.05-51.08.67-3.78.99-7.67.95-11.65-.16-16.84-6.84-32.05-17.58-43.13-4.8-4.96-10.4-9.08-16.6-12.17l16.6-47.06,6.4-18.14,8.86-25.12h94.01Z" />
  <path class="cls-1"
    d="M1561.03,122.31v295.02h-109.27v-40.26c-26.08,31.44-55.6,47.16-88.56,47.16h-8.06c-47.35,0-79.17-23.77-95.46-71.31-3.06-14.38-4.6-27.41-4.6-39.1V122.31h91.14l9.73,25.12,7.25,18.74,18.16,46.91c-6.92,3.58-13.09,8.49-18.16,14.4-9.53,11.09-15.24,25.69-15.09,41.64.03,3.57.36,7.07.96,10.46,5.14,29.28,30.25,51.37,60.25,51.08,29.6-.28,54.03-22.27,59.05-51.08.67-3.78.99-7.67.95-11.65-.16-16.84-6.84-32.05-17.58-43.13-4.8-4.96-10.4-9.08-16.6-12.17l16.6-47.06,6.4-18.14,8.86-25.12h94.01Z" />
  <path class="cls-1"
    d="M39.99,569.38v-108.35h112v108.35h83.72v82.58h-83.72v80.24c0,13.47,4.1,26.16,12.32,38.07,6.34,9.37,30.14,15.13,71.4,17.28v80.53h-45.36c-26.14,0-52.27-4.69-78.4-14.06-47.98-24.4-71.96-72.82-71.96-145.25v-56.81H11.7v-82.58h28.28Z" />
  <path class="cls-1"
    d="M1209.42,366.79l-1.56-246.47-116.82.63.1,20.38h-1.15c-22.47-18.51-48.53-27.68-78.25-27.52-18.61.05-37.27,3.65-55.88,10.74-54.22,27.68-81.17,72.51-80.86,134.44v3.49c.16,28.93,6.88,54.95,20.23,77.99,28.78,43.37,66.15,64.9,112.18,64.69l15.17-.1c24.66-.1,48.12-9.54,70.38-28.31l.63,128.76,116.56-.63-.73-138.09ZM1047.97,323.11c-8.91,0-17.36-1.88-25.02-5.21-.26-.05-.57-.16-.83-.21-.21-.16-.42-.26-.63-.42-21.27-10.01-36.02-31.64-36.02-56.67s14.81-46.71,36.13-56.67c3.18-1.67,6.73-2.92,10.63-3.75.05-.05.1-.05.1-.05,5-1.3,10.27-1.98,15.64-1.98,34.51,0,62.45,27.94,62.45,62.45s-27.94,62.5-62.45,62.5Z" />
  <path class="cls-1"
    d="M1241.5,564.78c78.86,0,129.07,40.84,150.61,122.51,3.74,15.55,5.62,34.75,5.62,57.6v5.34h-206.81v1.12c6.18,15.74,15.17,26.51,26.97,32.31,11.05,5.81,21.54,8.71,31.47,8.71h3.93c13.11,0,25.66-7.49,37.65-22.48h101.16v1.12c-37.28,65.57-84.49,98.35-141.62,98.35-53.2,0-94.04-15.78-122.51-47.35-28.48-31.56-42.71-65.98-42.71-103.26,0-43.27,14.98-79.56,44.96-108.88,29.97-29.31,67.06-44.35,111.27-45.1ZM1189.8,683.92h103.4v-.84c0-7.87-5.62-16.39-16.86-25.57-10.3-5.24-20.79-7.87-31.47-7.87-30.54,0-48.89,11.43-55.07,34.28Z" />
</svg>