<svg width="27" height="21" viewBox="0 0 27 21" fill="none" xmlns="http://www.w3.org/2000/svg">
<g id="hand-shake-heart_Solid 1">
<path id="Vector" fill-rule="evenodd" clip-rule="evenodd" d="M12.9611 9.10898L15.4806 7.60872C15.7235 7.46035 16.0085 7.39631 16.2915 7.42654C16.5745 7.45676 16.8396 7.57957 17.0456 7.77589L22.2431 12.7998C22.4317 12.982 22.6824 13.0857 22.9446 13.0899C23.2067 13.0941 23.4607 12.9985 23.655 12.8224L24.0292 12.4848C24.0388 12.4761 24.0481 12.4671 24.0573 12.4579C27.0546 9.46059 26.3017 5.09785 23.8771 2.67974C22.6476 1.45343 20.9489 0.679028 19.0301 0.813847C17.3045 0.936802 15.4957 1.78886 13.7582 3.53503H13.7571C13.564 3.73082 13.3748 3.9315 13.1919 4.13686L10.8871 6.44173C10.5931 6.73485 10.4164 7.12532 10.3902 7.53965C10.364 7.95397 10.4902 8.36358 10.7449 8.69137C10.9997 9.01917 11.3655 9.24254 11.7734 9.31945C12.1814 9.39637 12.6045 9.32151 12.9611 9.10898ZM20.9661 15.2556C21.071 15.1607 21.1553 15.0452 21.2137 14.9164C21.2722 14.7875 21.3035 14.648 21.3059 14.5066C21.3082 14.3651 21.2814 14.2247 21.2273 14.094C21.1731 13.9633 21.0927 13.8451 20.9909 13.7468L16.6864 9.58462C16.5232 9.42676 16.3125 9.32706 16.087 9.30094C15.8614 9.27482 15.6335 9.32372 15.4386 9.4401L13.7549 10.441C13.0735 10.8453 12.268 10.9869 11.4895 10.8394C10.7111 10.6919 10.0132 10.2653 9.52698 9.63979C9.04071 9.01425 8.79947 8.23275 8.84853 7.44196C8.89758 6.65118 9.23357 5.90548 9.79342 5.34484L12.0649 3.07449C12.341 2.76495 12.3097 2.28175 11.9635 2.05526C10.7954 1.29272 9.62085 0.89366 8.4819 0.810611C6.561 0.671478 4.86121 1.44156 3.62735 2.6668C1.19629 5.08167 0.445619 9.44441 3.46017 12.4579C3.4693 12.4671 3.47865 12.4761 3.48821 12.4848L11.8502 20.0584C12.1747 20.3524 12.5628 20.5674 12.9842 20.6865C13.4055 20.8057 13.8487 20.8259 14.2791 20.7455C14.9155 20.6279 14.9823 19.846 14.5132 19.4005L11.6248 16.6513C11.4758 16.5096 11.3891 16.3144 11.384 16.1088C11.3788 15.9032 11.4556 15.704 11.5973 15.5549C11.739 15.4059 11.9342 15.3193 12.1398 15.3141C12.3454 15.309 12.5446 15.3857 12.6936 15.5274L15.8862 18.5657C16.075 18.7453 16.3248 18.8469 16.5854 18.8501C16.8461 18.8533 17.0983 18.7579 17.2915 18.583L17.5029 18.3932C17.6082 18.2977 17.6927 18.1816 17.7511 18.052C17.8095 17.9224 17.8405 17.7821 17.8423 17.64C17.844 17.4979 17.8164 17.3569 17.7611 17.226C17.7059 17.095 17.6242 16.9768 17.5212 16.8789L14.5153 14.0185C14.4415 13.9484 14.3823 13.8643 14.341 13.7713C14.2996 13.6782 14.2771 13.5779 14.2745 13.4761C14.272 13.3743 14.2895 13.273 14.3261 13.1779C14.3627 13.0829 14.4176 12.996 14.4878 12.9222C14.558 12.8484 14.642 12.7892 14.7351 12.7478C14.8282 12.7065 14.9285 12.6839 15.0303 12.6814C15.1321 12.6788 15.2334 12.6964 15.3284 12.733C15.4235 12.7696 15.5104 12.8245 15.5842 12.8947L18.7842 15.9405C18.9731 16.1201 19.2229 16.2217 19.4835 16.2249C19.7441 16.2281 19.9963 16.1327 20.1896 15.9578L20.7612 15.4412C20.7704 15.4338 20.7794 15.4263 20.7882 15.4185V15.4174L20.9683 15.2556H20.9661Z" fill="#FFFF66"/>
</g>
</svg>
