<svg width="25" height="21" viewBox="0 0 25 21" fill="none" xmlns="http://www.w3.org/2000/svg">
<g id="hand-shake-heart 1">
<path id="Vector" d="M11.4609 19.539L3.03425 11.9067C-2.30464 6.56673 5.54424 -3.68549 12.8598 4.60896V4.61118L9.93202 7.53895C9.6491 7.82085 9.47952 8.19681 9.45546 8.59547C9.43141 8.99414 9.55456 9.38776 9.80154 9.70163C10.0485 10.0155 10.4021 10.2278 10.7953 10.2981C11.1884 10.3685 11.5937 10.2921 11.9342 10.0834L14.6398 8.4334C15.0312 8.19477 15.4904 8.09189 15.9462 8.14071C16.402 8.18952 16.8289 8.3873 17.1609 8.7034L19.9542 11.3623C20.1616 11.5599 20.326 11.7982 20.4371 12.0623C20.5482 12.3263 20.6037 12.6104 20.6 12.8969C20.5964 13.1833 20.5337 13.4659 20.4159 13.7271C20.2981 13.9882 20.1277 14.2222 19.9154 14.4145L14.2587 19.539C13.8755 19.8862 13.3769 20.0785 12.8598 20.0785C12.3427 20.0785 11.8441 19.8862 11.4609 19.539Z" stroke="white" stroke-linecap="round" stroke-linejoin="round"/>
<path id="Vector_2" d="M15.1914 12.291L18.6325 15.5677" stroke="white" stroke-linecap="round" stroke-linejoin="round"/>
<path id="Vector_3" d="M12.2783 14.9458L15.7194 18.2214" stroke="white" stroke-linecap="round" stroke-linejoin="round"/>
<path id="Vector_4" d="M19.4203 14.8636L22.687 11.9059C27.9914 6.60252 20.177 -3.68526 12.8614 4.60918L12.8603 4.61029L9.93032 7.53918C9.62495 7.84416 9.45298 8.25779 9.45215 8.68938C9.45132 9.12096 9.62168 9.53525 9.92588 9.84141C10.457 10.377 11.287 10.477 11.9325 10.0836L14.6425 8.43029C15.0343 8.19126 15.494 8.08826 15.9503 8.13728C16.4065 8.18631 16.8339 8.38461 17.1659 8.70141L19.9537 11.3614C20.1611 11.559 20.3255 11.7972 20.4368 12.0612C20.548 12.3252 20.6035 12.6093 20.6 12.8958C20.5964 13.1822 20.5339 13.4648 20.4161 13.726C20.2984 13.9872 20.1281 14.2213 19.9159 14.4136L19.4203 14.8636Z" stroke="white" stroke-linecap="round" stroke-linejoin="round"/>
</g>
</svg>
