<svg width="20" height="21" viewBox="0 0 20 21" fill="none" xmlns="http://www.w3.org/2000/svg">
<path d="M17.8793 20.5531H12.7364C12.5043 20.5531 12.3145 20.3632 12.3145 20.1312V15.3173C12.3145 13.9989 11.2429 12.9273 9.92444 12.9273C8.60602 12.9273 7.5344 13.9989 7.5344 15.3173V20.1312C7.5344 20.3632 7.34455 20.5531 7.1125 20.5531H1.96748C1.46753 20.5531 0.999225 20.359 0.646942 20.0067C0.294658 19.6544 0.100586 19.184 0.100586 18.6862V10.6427C0.100586 10.3854 0.151214 10.1322 0.254578 9.89174C0.357943 9.65126 0.507716 9.44031 0.699679 9.26311L9.63755 1.01504C9.79998 0.865267 10.0489 0.865267 10.2092 1.01504L19.1492 9.26101C19.3412 9.4382 19.4909 9.65126 19.5943 9.88963C19.6977 10.1301 19.7504 10.3832 19.7483 10.6448V18.6841C19.7483 19.184 19.5542 19.6523 19.2019 20.0046C18.8497 20.3569 18.3729 20.551 17.8814 20.551L17.8793 20.5531ZM13.1583 19.7093H17.8793C18.1493 19.7093 18.413 19.5996 18.6029 19.4097C18.7969 19.2157 18.9024 18.9583 18.9024 18.6862V10.6427C18.9024 10.4972 18.875 10.3579 18.818 10.2271C18.7611 10.0964 18.6788 9.98034 18.5733 9.8833L9.92444 1.90102L1.27135 9.88119C1.16798 9.97823 1.08571 10.0943 1.02876 10.225C0.971802 10.3558 0.944379 10.4951 0.944379 10.6385V18.6841C0.944379 18.9583 1.04985 19.2157 1.24393 19.4076C1.438 19.5996 1.69535 19.7072 1.96748 19.7072H6.6885V15.3152C6.6885 13.5327 8.13982 12.0814 9.92234 12.0814C11.7048 12.0814 13.1562 13.5327 13.1562 15.3152V19.7072L13.1583 19.7093Z" fill="#030303"/>
</svg>
