<svg width="23" height="21" viewBox="0 0 23 21" fill="none" xmlns="http://www.w3.org/2000/svg">
<path id="Vector" d="M22.4932 10.7617C22.4932 11.4648 21.9072 12.0156 21.2432 12.0156H19.9932L20.0205 18.2734C20.0205 18.3789 20.0127 18.4844 20.001 18.5898V19.2188C20.001 20.082 19.3018 20.7812 18.4385 20.7812H17.8135C17.7705 20.7812 17.7275 20.7812 17.6846 20.7773C17.6299 20.7812 17.5752 20.7812 17.5205 20.7812H16.251H15.3135C14.4502 20.7812 13.751 20.082 13.751 19.2188V18.2812V15.7812C13.751 15.0898 13.1924 14.5312 12.501 14.5312H10.001C9.30957 14.5312 8.75098 15.0898 8.75098 15.7812V18.2812V19.2188C8.75098 20.082 8.05176 20.7812 7.18848 20.7812H6.25098H5.00488C4.94629 20.7812 4.8877 20.7773 4.8291 20.7734C4.78223 20.7773 4.73535 20.7812 4.68848 20.7812H4.06348C3.2002 20.7812 2.50098 20.082 2.50098 19.2188V14.8438C2.50098 14.8086 2.50098 14.7695 2.50488 14.7344V12.0156H1.25098C0.547852 12.0156 0.000976562 11.4688 0.000976562 10.7617C0.000976562 10.4102 0.118164 10.0977 0.391602 9.82422L10.4072 1.09375C10.6807 0.820312 10.9932 0.78125 11.2666 0.78125C11.54 0.78125 11.8525 0.859375 12.0869 1.05469L22.0635 9.82422C22.376 10.0977 22.5322 10.4102 22.4932 10.7617Z" fill="#9CF"/>
</svg>
