<svg width="23" height="21" viewBox="0 0 23 21" fill="none" xmlns="http://www.w3.org/2000/svg">
<path id="Vector" d="M21.9962 10.7065L21.9932 10.734V10.7617C21.9932 11.1806 21.6392 11.5156 21.2432 11.5156H19.9932H19.491L19.4932 12.0178L19.5205 18.2734C19.5205 18.2737 19.5205 18.274 19.5205 18.2743C19.5205 18.3553 19.5144 18.441 19.504 18.5346L19.501 18.5622V18.5898V19.2188C19.501 19.8059 19.0256 20.2812 18.4385 20.2812H17.8135C17.7668 20.2812 17.7465 20.2809 17.7298 20.2794L17.6894 20.2757L17.6489 20.2786C17.615 20.281 17.5781 20.2812 17.5205 20.2812H16.251H15.3135C14.7263 20.2812 14.251 19.8059 14.251 19.2188V18.2812V15.7812C14.251 14.8137 13.4685 14.0312 12.501 14.0312H10.001C9.03343 14.0312 8.25098 14.8137 8.25098 15.7812V18.2812V19.2188C8.25098 19.8059 7.77562 20.2812 7.18848 20.2812H6.25098H5.00488C4.96572 20.2812 4.92376 20.2786 4.86236 20.2745L4.82495 20.2721L4.78758 20.2752C4.73718 20.2794 4.71107 20.2812 4.68848 20.2812H4.06348C3.47634 20.2812 3.00098 19.8059 3.00098 19.2188V14.8438C3.00098 14.8252 3.001 14.8131 3.00129 14.8022C3.00154 14.7928 3.00188 14.7891 3.00186 14.7893L3.00488 14.7621V14.7344V12.0156V11.5156H2.50488H1.25098C0.825017 11.5156 0.500977 11.1936 0.500977 10.7617C0.500977 10.5425 0.566121 10.3617 0.734235 10.1888L10.7358 1.47066L10.7487 1.45941L10.7608 1.4473C10.8952 1.3129 11.0439 1.28125 11.2666 1.28125C11.4559 1.28125 11.6417 1.33679 11.7626 1.43534L21.7334 10.1998L21.7342 10.2005C21.9644 10.4019 22.012 10.5648 21.9962 10.7065Z" stroke="white"/>
</svg>
