<svg width="18" height="21" viewBox="0 0 18 21" fill="none" xmlns="http://www.w3.org/2000/svg">
<path id="Vector" d="M9.25 10.7812C12.0117 10.7812 14.25 8.54297 14.25 5.78125C14.25 3.01953 12.0117 0.78125 9.25 0.78125C6.48828 0.78125 4.25 3.01953 4.25 5.78125C4.25 8.54297 6.48828 10.7812 9.25 10.7812ZM12.75 12.0312H12.0977C11.2305 12.4297 10.2656 12.6562 9.25 12.6562C8.23438 12.6562 7.27344 12.4297 6.40234 12.0312H5.75C2.85156 12.0312 0.5 14.3828 0.5 17.2812V18.9062C0.5 19.9414 1.33984 20.7812 2.375 20.7812H16.125C17.1602 20.7812 18 19.9414 18 18.9062V17.2812C18 14.3828 15.6484 12.0312 12.75 12.0312Z" fill="#9CF"/>
</svg>
