<svg width="18" height="21" viewBox="0 0 18 21" fill="none" xmlns="http://www.w3.org/2000/svg">
<path id="Vector" d="M13.75 5.78125C13.75 8.26683 11.7356 10.2812 9.25 10.2812C6.76442 10.2812 4.75 8.26683 4.75 5.78125C4.75 3.29567 6.76442 1.28125 9.25 1.28125C11.7356 1.28125 13.75 3.29567 13.75 5.78125ZM9.25 13.1562C10.3012 13.1562 11.3015 12.9301 12.205 12.5312H12.75C15.3723 12.5312 17.5 14.659 17.5 17.2812V18.9062C17.5 19.6653 16.884 20.2812 16.125 20.2812H2.375C1.61599 20.2812 1 19.6653 1 18.9062V17.2812C1 14.659 3.1277 12.5312 5.75 12.5312H6.29536C7.20154 12.9299 8.19813 13.1562 9.25 13.1562Z" stroke="white"/>
</svg>
