<svg width="19" height="21" viewBox="0 0 19 21" fill="none" xmlns="http://www.w3.org/2000/svg">
<path d="M13.9983 5.72791C13.9983 8.21348 11.9839 10.2279 9.49829 10.2279C7.01271 10.2279 4.99829 8.21348 4.99829 5.72791C4.99829 3.24233 7.01271 1.22791 9.49829 1.22791C11.9839 1.22791 13.9983 3.24233 13.9983 5.72791ZM9.49829 13.1029C10.5495 13.1029 11.5497 12.8768 12.4533 12.4779H12.9983C15.6206 12.4779 17.7483 14.6056 17.7483 17.2279V18.8529C17.7483 19.6119 17.1323 20.2279 16.3733 20.2279H2.62329C1.86428 20.2279 1.24829 19.6119 1.24829 18.8529V17.2279C1.24829 14.6056 3.376 12.4779 5.99829 12.4779H6.54365C7.44983 12.8765 8.44643 13.1029 9.49829 13.1029Z" stroke="#030303"/>
</svg>
