<svg id="Calque_2" data-name="Calque 2"  width="23" height="20" xmlns="http://www.w3.org/2000/svg" viewBox="0 0 23.74 20.6">
  <defs>
    <style>
      .cls-1 {
        fill: #fff;
        stroke-width: 0px;
      }
    </style>
  </defs>
  <g id="Calque_1-2" data-name="Calque 1">
    <path class="cls-1" d="m16.91,1c.82,0,1.6.46,1.97,1.25l.92,1.96c.13.27,0,.59-.22.8-.48.47-.64,1.21-.34,1.86.28.59.86.94,1.47.94.06,0,.11,0,.17,0,.03,0,.06,0,.1,0,.27,0,.54.11.65.35l.92,1.96c.51,1.08.04,2.37-1.05,2.88l-13.75,6.41c-.3.14-.61.2-.91.2-.82,0-1.6-.46-1.97-1.25l-.92-1.96c-.13-.27,0-.59.22-.8.48-.47.64-1.21.34-1.86-.28-.59-.86-.94-1.47-.94-.06,0-.11,0-.17,0-.03,0-.06,0-.1,0-.27,0-.54-.11-.65-.35l-.92-1.96c-.51-1.08-.04-2.37,1.05-2.88L16,1.2c.3-.14.61-.2.91-.2m-8.57,15.62c.15,0,.31-.03.46-.1l9.82-4.58c.54-.25.78-.9.52-1.44l-2.75-5.89c-.18-.39-.57-.63-.98-.63-.15,0-.31.03-.46.1l-9.82,4.58c-.54.25-.78.9-.52,1.44l2.75,5.89c.18.39.57.63.98.63m6.81-11.37c.2,0,.4.12.49.31l2.29,4.91c.13.27,0,.59-.26.72l-8.84,4.12c-.07.03-.15.05-.23.05-.2,0-.4-.12-.49-.31l-2.29-4.91c-.13-.27,0-.59.26-.72l8.84-4.12c.07-.03.15-.05.23-.05m1.77-5.24c-.46,0-.91.1-1.34.3L1.83,6.71C.25,7.44-.44,9.33.3,10.91l.92,1.96c.27.57.86.93,1.56.93.07,0,.13,0,.2,0,.02,0,.05,0,.07,0,.24,0,.47.14.57.36.11.24.06.53-.13.71-.56.54-.72,1.3-.43,1.94l.92,1.96c.52,1.11,1.65,1.83,2.87,1.83.46,0,.91-.1,1.34-.3l13.75-6.41c1.58-.74,2.27-2.63,1.53-4.21l-.92-1.96c-.27-.57-.86-.93-1.56-.93-.07,0-.13,0-.2,0-.02,0-.05,0-.07,0-.24,0-.47-.14-.57-.36-.11-.24-.06-.53.13-.71.56-.54.72-1.3.43-1.94l-.92-1.96c-.52-1.11-1.65-1.83-2.87-1.83h0Z"/>
  </g>
</svg>