<svg width="21" height="21" viewBox="0 0 21 21" fill="none" xmlns="http://www.w3.org/2000/svg">
<g clip-path="url(#clip0_92_3429)">
<path d="M6.08939 19.7554C5.8911 19.7554 5.6928 19.7217 5.50084 19.652C5.06207 19.4938 4.70979 19.1753 4.51149 18.7555L3.47363 16.5595C3.39136 16.3866 3.43777 16.1798 3.58332 16.0554C4.3132 15.4436 4.53892 14.4121 4.13179 13.5493C3.72466 12.6865 2.78594 12.2056 1.84722 12.3807C1.65947 12.4165 1.46962 12.3195 1.38735 12.1465L0.349486 9.95054C-0.0618625 9.08143 0.311516 8.03724 1.18273 7.628L13.3692 1.867C14.2383 1.45565 15.2804 1.82903 15.6918 2.70025L16.7317 4.90044C16.814 5.07342 16.7697 5.27804 16.6241 5.4025C15.9048 6.01635 15.6854 7.04156 16.0904 7.89801C16.4955 8.75446 17.4257 9.23543 18.3581 9.06878C18.5459 9.03502 18.7315 9.13206 18.8138 9.30293L19.8538 11.5031C20.2651 12.3722 19.8917 13.4143 19.0226 13.8257L6.83403 19.5867C6.59777 19.6985 6.34463 19.7554 6.08939 19.7554ZM4.36594 16.4773L5.27302 18.3969C5.37638 18.6142 5.5578 18.7787 5.78351 18.861C6.00923 18.9433 6.25604 18.9306 6.47331 18.8272L18.6619 13.0684C19.1112 12.8553 19.3032 12.3174 19.0922 11.8681L18.1809 9.9421C16.9891 10.0202 15.8479 9.35988 15.3289 8.26084C14.81 7.1618 15.0252 5.86025 15.8415 4.98904L14.9302 3.06308C14.7172 2.61376 14.1793 2.41969 13.7299 2.63275L1.54134 8.39163C1.09202 8.60469 0.900061 9.14261 1.11101 9.59193L2.01809 11.5116C3.21838 11.423 4.36805 12.0811 4.89331 13.1907C5.41646 14.3003 5.19497 15.6061 4.36594 16.4773Z" fill="#030303"/>
</g>
<defs>
<clipPath id="clip0_92_3429">
<rect width="20" height="20" fill="white" transform="translate(0.100586 0.727905)"/>
</clipPath>
</defs>
</svg>
