<svg width="23" height="20" viewBox="0 0 23 20" fill="none" xmlns="http://www.w3.org/2000/svg">
<path id="Vector" d="M2.12968 7.09507C1.0466 7.60012 0.576638 8.89132 1.08169 9.97441L1.99736 11.9381C2.12327 12.2081 2.44904 12.3139 2.74519 12.2841C3.41502 12.2146 4.08533 12.5707 4.38578 13.215C4.68624 13.8593 4.52813 14.6017 4.0443 15.0701C3.83113 15.2778 3.7028 15.5954 3.82871 15.8654L4.74438 17.8291C5.24943 18.9122 6.54064 19.3821 7.62372 18.8771L21.3694 12.4674C22.4525 11.9623 22.9224 10.6711 22.4174 9.58802L21.5017 7.62435C21.3758 7.35435 21.05 7.24852 20.7539 7.27829C20.0841 7.34783 19.4137 6.99177 19.1133 6.34744C18.8128 5.70311 18.9709 4.96075 19.4548 4.49234C19.6679 4.28461 19.7963 3.96702 19.6704 3.69702L18.7547 1.73335C18.2496 0.650268 16.9584 0.180308 15.8754 0.685359L2.12968 7.09507ZM5.69578 9.61581L7.98496 14.525C8.11086 14.795 8.43479 14.9129 8.70479 14.787L17.5413 10.6665C17.8113 10.5405 17.9292 10.2166 17.8033 9.94662L15.5141 5.03745C15.3882 4.76744 15.0643 4.64955 14.7943 4.77545L5.95778 8.89598C5.68777 9.02188 5.56987 9.34581 5.69578 9.61581ZM4.48503 9.58273C4.23178 9.03966 4.46595 8.3963 5.00902 8.14306L14.8274 3.5647C15.3704 3.31146 16.0138 3.54562 16.267 4.0887L19.014 9.9797C19.2673 10.5228 19.0331 11.1661 18.49 11.4194L8.67171 15.9977C8.12864 16.251 7.48529 16.0168 7.23204 15.4737L4.48503 9.58273Z" fill="#9CF"/>
</svg>
