<svg width="44" height="44" viewBox="0 0 44 44" fill="none" xmlns="http://www.w3.org/2000/svg">
<rect width="44" height="44" rx="22" fill="white"/>
<path d="M26.6371 29.2788C25.6571 30.2288 24.5871 30.0788 23.5571 29.6288C22.4671 29.1688 21.4671 29.1488 20.3171 29.6288C18.8771 30.2488 18.1171 30.0688 17.2571 29.2788C12.3771 24.2488 13.0971 16.5888 18.6371 16.3088C19.9871 16.3788 20.9271 17.0488 21.7171 17.1088C22.8971 16.8688 24.0271 16.1788 25.2871 16.2688C26.7971 16.3888 27.9371 16.9888 28.6871 18.0688C25.5671 19.9388 26.3071 24.0488 29.1671 25.1988C28.5971 26.6988 27.8571 28.1888 26.6271 29.2888L26.6371 29.2788ZM21.6171 16.2488C21.4671 14.0188 23.2771 12.1788 25.3571 11.9988C25.6471 14.5788 23.0171 16.4988 21.6171 16.2488Z" fill="#030303"/>
</svg>
