<svg width="13" height="15" viewBox="0 0 13 15" fill="none" xmlns="http://www.w3.org/2000/svg">
<path id="Vector" d="M4.66602 11.6667C4.29935 11.6667 3.98546 11.5361 3.72435 11.275C3.46324 11.0139 3.33269 10.7 3.33269 10.3333V2.33333C3.33269 1.96667 3.46324 1.65278 3.72435 1.39167C3.98546 1.13056 4.29935 1 4.66602 1H10.666C11.0327 1 11.3466 1.13056 11.6077 1.39167C11.8688 1.65278 11.9993 1.96667 11.9993 2.33333V10.3333C11.9993 10.7 11.8688 11.0139 11.6077 11.275C11.3466 11.5361 11.0327 11.6667 10.666 11.6667H4.66602ZM4.66602 10.3333H10.666V2.33333H4.66602V10.3333ZM1.99934 14.3333C1.63268 14.3333 1.31879 14.2028 1.05768 13.9417C0.796567 13.6806 0.666016 13.3667 0.666016 13V3.66667H1.99934V13H9.33269V14.3333H1.99934Z" fill="white" stroke="#030303" stroke-width="0.5"/>
</svg>
