<svg width="35" height="22" viewBox="0 0 35 22" fill="none" xmlns="http://www.w3.org/2000/svg">
<g id="Apple_Pay_Mark_RGB_041619 1">
<rect width="34.3647" height="22" rx="1.5" fill="white"/>
<g id="Vector">
<path d="M25.5866 4H8.12435C7.50417 4 7 4.50417 7 5.12435V8.67039H26.711V5.12435C26.711 4.50417 26.2068 4 25.5866 4Z" fill="#030303"/>
<path d="M7 17.0324C7 17.6526 7.50417 18.1567 8.12435 18.1567H25.5866C26.2068 18.1567 26.711 17.6526 26.711 17.0324V9.5163H7V17.0324ZM20.8234 14.2289H23.205C23.4371 14.2289 23.6269 14.4187 23.6269 14.6508C23.6269 14.8828 23.4371 15.0727 23.205 15.0727H20.8234C20.5914 15.0727 20.4015 14.8828 20.4015 14.6508C20.4015 14.4187 20.5914 14.2289 20.8234 14.2289Z" fill="#030303"/>
</g>
</g>
</svg>
