<svg width="21" height="15" viewBox="0 0 21 15" fill="none" xmlns="http://www.w3.org/2000/svg">
<path d="M19.9005 6.36237C19.9005 6.36237 19.8984 6.35817 19.8963 6.35817C18.1589 4.25523 14.6253 0.727921 10.4635 0.727921C6.30178 0.727921 2.77026 4.25523 1.02867 6.36237C0.726147 6.73842 0.560181 7.22372 0.560181 7.72792C0.560181 8.23212 0.726147 8.71532 1.03287 9.09767C2.77026 11.2006 6.30388 14.7279 10.4656 14.7279C14.6274 14.7279 18.161 11.2006 19.9026 9.09347C20.2051 8.71532 20.3711 8.23212 20.3711 7.72792C20.3711 7.22372 20.2051 6.74053 19.9026 6.36237H19.9005ZM19.2493 8.56195C15.4236 13.1943 12.1043 13.8855 10.4656 13.8855C6.64842 13.8855 3.32279 10.5493 1.68623 8.56616C1.50346 8.33716 1.40262 8.03885 1.40262 7.72582C1.40262 7.4128 1.50346 7.11448 1.68203 6.89179C3.32489 4.90439 6.65052 1.56826 10.4656 1.56826C12.1043 1.56826 15.4215 2.25943 19.2472 6.88969C19.4299 7.11868 19.5287 7.4149 19.5287 7.72582C19.5287 8.03674 19.4278 8.33716 19.2493 8.55985V8.56195Z" fill="white"/>
<path d="M10.4656 4.38338C8.62111 4.38338 7.12111 5.88338 7.12111 7.72792C7.12111 9.57246 8.62111 11.0725 10.4656 11.0725C12.3102 11.0725 13.8102 9.57246 13.8102 7.72792C13.8102 5.88338 12.3102 4.38338 10.4656 4.38338ZM10.4656 10.23C9.08539 10.23 7.96144 9.10607 7.96144 7.72582C7.96144 6.34557 9.08539 5.22162 10.4656 5.22162C11.8459 5.22162 12.9698 6.34557 12.9698 7.72582C12.9698 9.10607 11.8459 10.23 10.4656 10.23Z" fill="white"/>
</svg>
