<svg width="21" height="15" viewBox="0 0 21 15" fill="none" xmlns="http://www.w3.org/2000/svg">
<path d="M19.9005 6.36236C19.9005 6.36236 19.8984 6.35816 19.8963 6.35816C18.1589 4.25522 14.6253 0.727905 10.4635 0.727905C6.30178 0.727905 2.77026 4.25522 1.02867 6.36236C0.726147 6.73841 0.560181 7.2237 0.560181 7.72791C0.560181 8.23211 0.726147 8.7153 1.03287 9.09765C2.77026 11.2006 6.30388 14.7279 10.4656 14.7279C14.6274 14.7279 18.161 11.2006 19.9026 9.09345C20.2051 8.7153 20.3711 8.23211 20.3711 7.72791C20.3711 7.2237 20.2051 6.74051 19.9026 6.36236H19.9005ZM19.2493 8.56194C15.4236 13.1943 12.1043 13.8855 10.4656 13.8855C6.64842 13.8855 3.32279 10.5493 1.68623 8.56614C1.50346 8.33715 1.40262 8.03883 1.40262 7.72581C1.40262 7.41278 1.50346 7.11446 1.68203 6.89177C3.32489 4.90438 6.65052 1.56824 10.4656 1.56824C12.1043 1.56824 15.4215 2.25942 19.2472 6.88967C19.4299 7.11866 19.5287 7.41488 19.5287 7.72581C19.5287 8.03673 19.4278 8.33715 19.2493 8.55984V8.56194Z" fill="#030303"/>
<path d="M10.4656 4.38337C8.62111 4.38337 7.12111 5.88337 7.12111 7.72791C7.12111 9.57244 8.62111 11.0724 10.4656 11.0724C12.3102 11.0724 13.8102 9.57244 13.8102 7.72791C13.8102 5.88337 12.3102 4.38337 10.4656 4.38337ZM10.4656 10.23C9.08539 10.23 7.96144 9.10606 7.96144 7.7258C7.96144 6.34555 9.08539 5.2216 10.4656 5.2216C11.8459 5.2216 12.9698 6.34555 12.9698 7.7258C12.9698 9.10606 11.8459 10.23 10.4656 10.23Z" fill="#030303"/>
</svg>
