<svg width="21" height="15" viewBox="0 0 21 15" fill="none" xmlns="http://www.w3.org/2000/svg">
<path d="M19.8408 6.4569C19.8408 6.4569 19.8408 6.4569 19.8408 6.4548C18.0829 4.31538 14.5081 0.727905 10.3241 0.727905C6.14014 0.727905 2.56531 4.31538 0.8053 6.4569C0.524963 6.8068 0.371094 7.25997 0.371094 7.72791C0.371094 8.19584 0.524963 8.64901 0.807408 9.00102C2.56531 11.1404 6.14014 14.7279 10.322 14.7279C14.5039 14.7279 18.0787 11.1383 19.8387 8.9968C20.1191 8.64691 20.2729 8.19584 20.2729 7.7258C20.2729 7.25576 20.1191 6.80469 19.8387 6.4548L19.8408 6.4569ZM10.3304 11.1236C8.55778 11.1236 7.11816 9.68184 7.11816 7.91128C7.11816 6.14073 8.55989 4.699 10.3304 4.699C12.101 4.699 13.5427 6.14073 13.5427 7.91128C13.5427 9.68184 12.101 11.1236 10.3304 11.1236Z" fill="#030303"/>
</svg>
