<svg width="22" height="15" viewBox="0 0 22 15" fill="none" xmlns="http://www.w3.org/2000/svg">
<path d="M10.9467 4.21147C10.2041 4.21147 9.49186 4.50647 8.96676 5.03158C8.44166 5.55668 8.14666 6.26887 8.14666 7.01147C8.14666 7.75408 8.44166 8.46627 8.96676 8.99137C9.49186 9.51648 10.2041 9.81147 10.9467 9.81147C11.6893 9.81147 12.4015 9.51648 12.9266 8.99137C13.4517 8.46627 13.7467 7.75408 13.7467 7.01147C13.7467 6.26887 13.4517 5.55668 12.9266 5.03158C12.4015 4.50647 11.6893 4.21147 10.9467 4.21147ZM10.9467 11.6781C9.70898 11.6781 8.522 11.1865 7.64683 10.3113C6.77166 9.43614 6.27999 8.24915 6.27999 7.01147C6.27999 5.7738 6.77166 4.58681 7.64683 3.71164C8.522 2.83647 9.70898 2.34481 10.9467 2.34481C12.1843 2.34481 13.3713 2.83647 14.2465 3.71164C15.1217 4.58681 15.6133 5.7738 15.6133 7.01147C15.6133 8.24915 15.1217 9.43614 14.2465 10.3113C13.3713 11.1865 12.1843 11.6781 10.9467 11.6781ZM10.9467 0.0114746C6.27999 0.0114746 2.29466 2.91414 0.679993 7.01147C2.29466 11.1088 6.27999 14.0115 10.9467 14.0115C15.6133 14.0115 19.5987 11.1088 21.2133 7.01147C19.5987 2.91414 15.6133 0.0114746 10.9467 0.0114746Z" fill="white"/>
</svg>
