<svg width="22" height="20" viewBox="0 0 22 20" fill="none" xmlns="http://www.w3.org/2000/svg">
<g clip-path="url(#clip0_706_18459)">
<path d="M5.29549 4.23193H1" stroke="white" stroke-width="1.5" stroke-linecap="round" stroke-linejoin="round"/>
<path d="M5.29492 4.23181C5.29492 4.59543 5.36654 4.95549 5.50569 5.29143C5.64484 5.62738 5.8488 5.93262 6.10592 6.18974C6.36304 6.44686 6.66828 6.65081 7.00422 6.78996C7.34017 6.92912 7.70022 7.00074 8.06384 7.00074C8.42746 7.00074 8.78752 6.92912 9.12347 6.78996C9.45941 6.65081 9.76465 6.44686 10.0218 6.18974C10.2789 5.93262 10.4828 5.62738 10.622 5.29143C10.7611 4.95549 10.8328 4.59543 10.8328 4.23181C10.8328 3.86819 10.7611 3.50813 10.622 3.17219C10.4828 2.83625 10.2789 2.53101 10.0218 2.27389C9.76465 2.01677 9.45941 1.81281 9.12347 1.67366C8.78752 1.53451 8.42746 1.46289 8.06384 1.46289C7.70022 1.46289 7.34017 1.53451 7.00422 1.67366C6.66828 1.81281 6.36304 2.01677 6.10592 2.27389C5.8488 2.53101 5.64484 2.83625 5.50569 3.17219C5.36654 3.50813 5.29492 3.86819 5.29492 4.23181Z" stroke="white" stroke-width="1.5"/>
<path d="M20.834 4.23193H10.834" stroke="white" stroke-width="1.5" stroke-linecap="round" stroke-linejoin="round"/>
<path d="M11.002 15.77H1.00195" stroke="white" stroke-width="1.5" stroke-linecap="round" stroke-linejoin="round"/>
<path d="M11.002 15.7699C11.002 16.5043 11.2937 17.2085 11.813 17.7278C12.3322 18.2471 13.0365 18.5388 13.7709 18.5388C14.5052 18.5388 15.2095 18.2471 15.7288 17.7278C16.2481 17.2085 16.5398 16.5043 16.5398 15.7699C16.5398 15.0355 16.2481 14.3312 15.7288 13.812C15.2095 13.2927 14.5052 13.001 13.7709 13.001C13.0365 13.001 12.3322 13.2927 11.813 13.812C11.2937 14.3312 11.002 15.0355 11.002 15.7699Z" stroke="white" stroke-width="1.5"/>
<path d="M20.831 15.77H16.5391" stroke="white" stroke-width="1.5" stroke-linecap="round" stroke-linejoin="round"/>
</g>
<defs>
<clipPath id="clip0_706_18459">
<rect width="21.8333" height="19.0757" fill="white" transform="translate(0 0.462891)"/>
</clipPath>
</defs>
</svg>
