<svg width="22" height="20" viewBox="0 0 22 20" fill="none" xmlns="http://www.w3.org/2000/svg">
<path d="M5.06087 3.95899L5.81087 3.95899L5.81087 3.95899L5.06087 3.95899ZM0.765381 3.20899C0.351167 3.20899 0.0153809 3.54477 0.0153809 3.95899C0.0153809 4.3732 0.351167 4.70899 0.765381 4.70899V3.20899ZM10.5987 3.95899L9.84871 3.95899V3.95899L10.5987 3.95899ZM7.82979 1.19006L7.82979 0.440063L7.82979 1.19006ZM20.5987 4.70899C21.0129 4.70899 21.3487 4.3732 21.3487 3.95899C21.3487 3.54477 21.0129 3.20899 20.5987 3.20899V4.70899ZM0.76718 14.7468C0.352967 14.7468 0.0171804 15.0826 0.0171804 15.4968C0.0171804 15.911 0.352967 16.2468 0.76718 16.2468V14.7468ZM20.5969 16.2468C21.0111 16.2468 21.3469 15.911 21.3469 15.4968C21.3469 15.0826 21.0111 14.7468 20.5969 14.7468V16.2468ZM5.06087 3.20899H0.765381V4.70899H5.06087V3.20899ZM4.31087 3.95899C4.31087 4.4211 4.40189 4.87868 4.57873 5.30562L5.96455 4.73159C5.86309 4.48665 5.81087 4.22412 5.81087 3.95899L4.31087 3.95899ZM4.57873 5.30562C4.75557 5.73256 5.01478 6.12048 5.34154 6.44724L6.4022 5.38658C6.21472 5.19911 6.06601 4.97654 5.96455 4.73159L4.57873 5.30562ZM5.34154 6.44724C5.6683 6.774 6.05622 7.0332 6.48316 7.21005L7.05718 5.82423C6.81224 5.72277 6.58967 5.57405 6.4022 5.38658L5.34154 6.44724ZM6.48316 7.21005C6.91009 7.38689 7.36768 7.47791 7.82979 7.47791V5.97791C7.56466 5.97791 7.30213 5.92569 7.05718 5.82423L6.48316 7.21005ZM7.82979 7.47791C8.2919 7.47791 8.74949 7.38689 9.17643 7.21005L8.6024 5.82423C8.35745 5.92569 8.09492 5.97791 7.82979 5.97791V7.47791ZM9.17643 7.21005C9.60336 7.0332 9.99128 6.774 10.318 6.44724L9.25739 5.38658C9.06991 5.57405 8.84735 5.72277 8.6024 5.82423L9.17643 7.21005ZM10.318 6.44724C10.6448 6.12048 10.904 5.73255 11.0809 5.30562L9.69503 4.73159C9.59357 4.97654 9.44486 5.19911 9.25739 5.38658L10.318 6.44724ZM11.0809 5.30562C11.2577 4.87868 11.3487 4.4211 11.3487 3.95899L9.84871 3.95899C9.84871 4.22412 9.79649 4.48665 9.69503 4.73159L11.0809 5.30562ZM11.3487 3.95899C11.3487 3.49687 11.2577 3.03929 11.0809 2.61235L9.69503 3.18638C9.79649 3.43132 9.84871 3.69386 9.84871 3.95899L11.3487 3.95899ZM11.0809 2.61235C10.904 2.18542 10.6448 1.79749 10.318 1.47073L9.25739 2.53139C9.44486 2.71887 9.59357 2.94143 9.69503 3.18638L11.0809 2.61235ZM10.318 1.47073C9.99128 1.14397 9.60336 0.884768 9.17643 0.707926L8.6024 2.09374C8.84735 2.19521 9.06991 2.34392 9.25739 2.53139L10.318 1.47073ZM9.17643 0.707926C8.74949 0.531083 8.2919 0.440063 7.82979 0.440063L7.82979 1.94006C8.09492 1.94006 8.35745 1.99228 8.6024 2.09374L9.17643 0.707926ZM7.82979 0.440063C7.36768 0.440063 6.91009 0.531083 6.48316 0.707926L7.05718 2.09374C7.30213 1.99228 7.56466 1.94006 7.82979 1.94006L7.82979 0.440063ZM6.48316 0.707926C6.05622 0.884768 5.6683 1.14397 5.34154 1.47073L6.4022 2.53139C6.58967 2.34392 6.81224 2.19521 7.05718 2.09374L6.48316 0.707926ZM5.34154 1.47073C5.01478 1.79749 4.75557 2.18542 4.57873 2.61235L5.96455 3.18638C6.06601 2.94143 6.21472 2.71887 6.4022 2.53139L5.34154 1.47073ZM4.57873 2.61235C4.40189 3.03929 4.31087 3.49687 4.31087 3.95899L5.81087 3.95899C5.81087 3.69386 5.86309 3.43132 5.96455 3.18638L4.57873 2.61235ZM20.5987 3.20899H10.5987V4.70899H20.5987V3.20899ZM10.7672 14.7468H0.76718V16.2468H10.7672V14.7468ZM10.0172 15.4968C10.0172 16.4301 10.3879 17.3252 11.0478 17.9851L12.1085 16.9244C11.7299 16.5458 11.5172 16.0323 11.5172 15.4968L10.0172 15.4968ZM11.0478 17.9851C11.7078 18.645 12.6028 19.0158 13.5361 19.0158V17.5158C13.0007 17.5158 12.4871 17.303 12.1085 16.9244L11.0478 17.9851ZM13.5361 19.0158C14.4694 19.0158 15.3644 18.645 16.0244 17.9851L14.9637 16.9244C14.5851 17.303 14.0716 17.5158 13.5361 17.5158V19.0158ZM16.0244 17.9851C16.6843 17.3252 17.055 16.4301 17.055 15.4968L15.555 15.4968C15.555 16.0323 15.3423 16.5458 14.9637 16.9244L16.0244 17.9851ZM17.055 15.4968C17.055 14.5636 16.6843 13.6685 16.0244 13.0086L14.9637 14.0692C15.3423 14.4479 15.555 14.9614 15.555 15.4968L17.055 15.4968ZM16.0244 13.0086C15.3644 12.3487 14.4694 11.9779 13.5361 11.9779V13.4779C14.0716 13.4779 14.5851 13.6906 14.9637 14.0692L16.0244 13.0086ZM13.5361 11.9779C12.6028 11.9779 11.7078 12.3487 11.0478 13.0086L12.1085 14.0692C12.4871 13.6906 13.0007 13.4779 13.5361 13.4779V11.9779ZM11.0478 13.0086C10.3879 13.6685 10.0172 14.5636 10.0172 15.4968H11.5172C11.5172 14.9614 11.7299 14.4479 12.1085 14.0692L11.0478 13.0086ZM20.5969 14.7468H16.305V16.2468H20.5969V14.7468Z" fill="#030303"/>
</svg>
