<svg width="28" height="28" viewBox="0 0 28 28" fill="black" xmlns="http://www.w3.org/2000/svg">

  <circle cx="14" cy="14" r="14" fill="white" />

  <path d="M20.8371 11.3233C20.4382 9.94717 19.3475 8.87287 18.058 8.5845C16.7013 8.27969 15.2699 8.84149 14.0028 10.1653C12.7328 8.8385 11.2984 8.2752 9.93722 8.58151C8.64925 8.86988 7.55851 9.94269 7.16106 11.3143C6.76361 12.6845 7.10876 14.0427 8.11882 15.0527L13.8041 20.2016C13.8609 20.2524 13.9326 20.2793 14.0043 20.2793C14.0761 20.2793 14.1478 20.2539 14.2045 20.2016L19.9003 15.0423C20.8939 14.0487 21.2361 12.6934 20.8371 11.3248V11.3233ZM19.4879 14.609L14.0028 19.5771L8.52971 14.6194C7.68999 13.7782 7.39863 12.6352 7.73482 11.4802C8.0725 10.3147 8.98842 9.40629 10.0672 9.16423C10.2644 9.1209 10.4632 9.09849 10.6634 9.09849C11.7078 9.09849 12.7941 9.68868 13.7787 10.8048C13.8923 10.9333 14.1134 10.9333 14.227 10.8048C15.3984 9.47651 16.7118 8.89528 17.928 9.16722C19.0068 9.40927 19.9242 10.3192 20.2634 11.4892C20.5981 12.6426 20.3127 13.7827 19.4879 14.6075V14.609Z" fill="black"/>
</svg>
