<svg width="21" height="20" viewBox="0 0 14 13" fill="none" xmlns="http://www.w3.org/2000/svg">
<path d="M13.8371 3.3233C13.4382 1.94717 12.3475 0.872869 11.058 0.584495C9.7013 0.279686 8.26989 0.841491 7.00284 2.16532C5.7328 0.838503 4.2984 0.275203 2.93722 0.581507C1.64925 0.869881 0.558508 1.94269 0.16106 3.31433C-0.236388 4.68448 0.108764 6.04268 1.11882 7.05273L6.80411 12.2016C6.86089 12.2524 6.93261 12.2793 7.00433 12.2793C7.07605 12.2793 7.14777 12.2539 7.20455 12.2016L12.9003 7.04227C13.8939 6.04865 14.2361 4.69345 13.8371 3.32479V3.3233ZM12.4879 6.60896L7.00284 11.5771L1.52971 6.61942C0.689994 5.77821 0.398632 4.63517 0.734819 3.48019C1.0725 2.31474 1.98842 1.40629 3.06721 1.16423C3.26444 1.1209 3.46316 1.09849 3.66338 1.09849C4.7078 1.09849 5.79406 1.68868 6.77871 2.80482C6.89227 2.93332 7.11341 2.93332 7.22696 2.80482C8.39839 1.47651 9.71176 0.895281 10.928 1.16722C12.0068 1.40927 12.9242 2.31922 13.2634 3.48915C13.5981 4.64264 13.3127 5.78269 12.4879 6.60747V6.60896Z" fill="#030303"/>
</svg>
