<svg width="30" height="30" viewBox="0 0 20 20" fill="none" xmlns="http://www.w3.org/2000/svg">
<path id="Vector" d="M17.4648 3.36719C15.6367 1.30469 12.9766 0 10 0C4.47656 0 0 4.47656 0 10H2.5C2.5 5.85547 5.85547 2.5 10 2.5C12.2852 2.5 14.3125 3.53516 15.6836 5.14844L13.332 7.5H20V0.832031L17.4648 3.36719ZM10 17.5C7.71484 17.5 5.6875 16.4648 4.31641 14.8516L6.66797 12.5H0V19.168L2.53516 16.6328C4.36328 18.6953 7.02734 20 10 20C15.5234 20 20 15.5234 20 10H17.5C17.5 14.1445 14.1445 17.5 10 17.5Z" fill="#9CF"/>
</svg>
