<svg width="21" height="20" viewBox="0 0 21 20" fill="none" xmlns="http://www.w3.org/2000/svg">
<g id="App_UT_Like 1" clip-path="url(#clip0_3165_3369)">
<path id="Vector" d="M19.8302 5.6703C19.2669 3.72747 17.727 2.21075 15.9065 1.80362C13.9911 1.37328 11.9702 2.16645 10.1814 4.03545C8.38832 2.16223 6.36322 1.36695 4.44148 1.7994C2.62311 2.20653 1.08319 3.72114 0.522065 5.65764C-0.0390577 7.59204 0.448233 9.50956 1.87424 10.9356L9.90082 18.2048C9.98098 18.2766 10.0822 18.3145 10.1835 18.3145C10.2847 18.3145 10.386 18.2787 10.4662 18.2048L18.5075 10.9208C19.9103 9.51799 20.3934 7.60469 19.8302 5.67241V5.6703Z" fill="white"/>
</g>
<defs>
<clipPath id="clip0_3165_3369">
<rect width="20" height="20" fill="white" transform="translate(0.176117)"/>
</clipPath>
</defs>
</svg>
