<svg width="16" height="17" viewBox="0 0 16 17" fill="none" xmlns="http://www.w3.org/2000/svg">
<path id="Vector" d="M7.75187 0.75C3.46956 0.75 0 4.21914 0 8.50093C0 12.7827 3.46956 16.25 7.75 16.25C12.0304 16.25 15.5 12.7809 15.5 8.50093C15.5 4.22101 12.0323 0.75 7.75187 0.75ZM8.67297 13.6495H6.83076V6.88499H8.67297V13.6495ZM7.9275 5.37366C7.37259 5.4708 6.84571 5.10091 6.74855 4.54607C6.6514 3.99123 7.02134 3.46441 7.57624 3.36727C8.13115 3.27013 8.65803 3.64002 8.75518 4.19486C8.85234 4.7497 8.4824 5.27652 7.9275 5.37366Z" fill="#7E7E7E"/>
</svg>
