<svg xmlns="http://www.w3.org/2000/svg" width="20" height="20" viewBox="0 0 25 25" fill="none">
<path d="M14.0701 22.6814C14.0701 23.6757 13.2647 24.4811 12.2705 24.4811C11.7753 24.4831 11.3259 24.2803 10.9997 23.9541C10.6736 23.628 10.4726 23.1784 10.473 22.6816L10.4708 14.3016L2.09209 14.2988C1.59296 14.3008 1.14394 14.0983 0.818207 13.7726C0.492478 13.4469 0.290437 12.9982 0.292226 12.4989C0.292228 11.5046 1.0976 10.6992 2.09189 10.6992L10.4758 10.6992L10.4738 2.31736C10.4738 1.32307 11.2791 0.517691 12.2734 0.517691C13.2677 0.517691 14.0731 1.32307 14.0731 2.31736L14.0701 10.7022L22.454 10.7022C23.4483 10.7022 24.2537 11.5076 24.2537 12.5019C24.2537 13.4962 23.4483 14.3016 22.454 14.3016L14.0701 14.3016L14.0701 22.6814Z" fill="white"/>
</svg>