<svg width="24" height="25" viewBox="0 0 24 25" fill="none" xmlns="http://www.w3.org/2000/svg">
<path d="M13.7969 22.9095C13.7969 23.9038 12.9916 24.7091 11.9973 24.7091C11.5021 24.7111 11.0527 24.5083 10.7266 24.1822C10.4004 23.856 10.1994 23.4064 10.1998 22.9097L10.1976 14.5296L1.8189 14.5268C1.31977 14.5288 0.870743 14.3263 0.545014 14.0006C0.219284 13.6749 0.0172438 13.2263 0.0190336 12.7269C0.0190336 11.7326 0.82441 10.9273 1.8187 10.9273L10.2026 10.9273L10.2006 2.54539C10.2006 1.55109 11.006 0.745718 12.0002 0.745718C12.9945 0.745719 13.7999 1.55109 13.7999 2.54539L13.7969 10.9302L22.1808 10.9302C23.1751 10.9302 23.9805 11.7356 23.9805 12.7299C23.9805 13.7242 23.1751 14.5296 22.1808 14.5296L13.7969 14.5296L13.7969 22.9095Z" fill="#030303"/>
</svg>
