<svg width="26" height="21" viewBox="0 0 26 21" fill="none" xmlns="http://www.w3.org/2000/svg">
<g id="Frame" clip-path="url(#clip0_684_11715)">
<g id="Calque 5">
<path id="Vector" d="M18.6621 6.27588H7.40841C7.06312 6.27588 6.7832 6.55579 6.7832 6.90109V13.1532C6.7832 13.4985 7.06312 13.7784 7.40841 13.7784H18.6621C19.0074 13.7784 19.2874 13.4985 19.2874 13.1532V6.90109C19.2874 6.55579 19.0074 6.27588 18.6621 6.27588Z" fill="white"/>
<path id="Vector_2" d="M3.98823 12.0416C3.98823 12.0416 3.99175 12.0416 3.9937 12.0416C4.53646 12.0432 5.04562 12.2562 5.42699 12.6418C5.46372 12.679 5.4985 12.718 5.5321 12.7575V6.27566C5.5321 5.58402 6.09088 5.02524 6.78252 5.02524H14.2772C13.8177 4.65246 13.523 4.08353 13.523 3.44699C13.523 3.11484 13.6035 2.80146 13.7454 2.52441H4.28208C2.90272 2.52441 1.78125 3.64588 1.78125 5.02524V7.52607C1.78125 7.86994 2.07041 8.13956 2.39473 8.25288C3.12935 8.50687 3.65687 9.20632 3.65687 10.0269C3.65687 10.8475 3.12935 11.5469 2.39473 11.8009C2.07041 11.9143 1.78125 12.1839 1.78125 12.5277V13.4073L2.55104 12.6375C2.93554 12.253 3.44587 12.0416 3.98823 12.0416Z" fill="white"/>
<path id="Vector_3" d="M22.1169 7.98579H22.1114C21.5687 7.98423 21.0595 7.77127 20.6781 7.38559C20.6281 7.33519 20.5816 7.28243 20.5374 7.22812V13.7783C20.5374 14.47 19.9787 15.0288 19.287 15.0288H11.8682C12.3066 15.4019 12.5856 15.9572 12.5856 16.5765C12.5856 16.9208 12.4992 17.2451 12.3476 17.5296H21.7879C23.1672 17.5296 24.2887 16.4081 24.2887 15.0288V12.5279C24.2887 12.1841 23.9995 11.9144 23.6752 11.8011C22.9406 11.5471 22.4131 10.8477 22.4131 10.0271C22.4131 9.20651 22.9406 8.50706 23.6752 8.25307C23.9995 8.13975 24.2887 7.87013 24.2887 7.52627V6.65527L23.5541 7.38989C23.1696 7.7744 22.6592 7.98579 22.1169 7.98579Z" fill="white"/>
</g>
<g id="Calque 2">
<path id="Vector_4" d="M15.556 4.38475L22.3551 4.39257L21.4564 5.29131C21.0891 5.65471 21.093 6.24865 21.4564 6.61596C21.8198 6.98327 22.4137 6.98327 22.781 6.61596L25.2819 4.11513C25.4577 3.93929 25.5554 3.70093 25.5554 3.45085C25.5554 3.20077 25.4577 2.96241 25.2819 2.78657L22.781 0.285737C22.4176 -0.081572 21.8237 -0.0776645 21.4564 0.285737C21.0891 0.649139 21.0891 1.24309 21.4564 1.6104L22.359 2.50913H15.556C15.0363 2.50913 14.6182 2.92724 14.6182 3.44694C14.6182 3.96665 15.0363 4.38475 15.556 4.38475Z" fill="white"/>
<path id="Vector_5" d="M10.5541 15.6385H3.75497L4.65371 14.7398L4.6498 14.7359C5.01711 14.3725 5.0132 13.7785 4.6498 13.4112C4.2864 13.0439 3.69245 13.0439 3.32514 13.4112L0.82431 15.9121C0.64847 16.0879 0.550781 16.3263 0.550781 16.5763C0.550781 16.8264 0.64847 17.0648 0.82431 17.2406L3.32514 19.7375C3.68854 20.1049 4.28249 20.1009 4.6498 19.7375C5.01711 19.3741 5.01711 18.7802 4.6498 18.4129L3.75106 17.5141H10.5541C11.0738 17.5141 11.4919 17.096 11.4919 16.5763C11.4919 16.0566 11.0738 15.6385 10.5541 15.6385Z" fill="white"/>
</g>
</g>
<defs>
<clipPath id="clip0_684_11715">
<rect width="25.0044" height="20" fill="white" transform="translate(0.550781 0.0117188)"/>
</clipPath>
</defs>
</svg>
